<?xml version="1.0" encoding="UTF-8"?>
<svg version="1.1" xmlns="http://www.w3.org/2000/svg" width="397" height="237">
<path d="M0 0 C0.979617 -0.00705963 1.95923401 -0.01411926 2.96853638 -0.02139282 C44.17627842 -0.25089769 44.17627842 -0.25089769 63.33984375 3.203125 C64.50950684 3.41243652 65.67916992 3.62174805 66.88427734 3.83740234 C114.24650914 12.55471816 167.63090476 30.46414651 196.71606445 71.59765625 C201.32057283 78.38690555 205.12538092 85.65976446 208.33984375 93.203125 C208.77031006 94.16955933 208.77031006 94.16955933 209.20947266 95.15551758 C212.03160873 102.32152976 211.89342742 109.66002884 211.83984375 117.265625 C211.83741669 117.95665314 211.83498962 118.64768127 211.83248901 119.35964966 C211.75931689 130.07773416 211.0229682 139.39611145 206.33984375 149.203125 C206.03933105 149.84668945 205.73881836 150.49025391 205.42919922 151.15332031 C192.7062908 177.77967933 168.7542501 195.64741188 143.33984375 209.203125 C142.36917969 209.73550781 141.39851563 210.26789063 140.3984375 210.81640625 C119.0789853 222.06749696 95.15147652 228.53935379 71.58984375 233.015625 C70.57519043 233.21051514 69.56053711 233.40540527 68.51513672 233.60620117 C51.09353457 236.72220427 33.64021096 237.53557965 15.97412109 237.46386719 C12.84192566 237.45313214 9.71030345 237.46384796 6.578125 237.4765625 C-10.98821776 237.48999025 -28.34976799 236.45609202 -45.59765625 232.953125 C-47.22513794 232.6288855 -47.22513794 232.6288855 -48.88549805 232.2980957 C-93.19052192 223.2275467 -142.73719616 204.25372441 -169.66015625 165.578125 C-181.67848722 147.16042299 -188.2839564 125.9443822 -183.94140625 103.91015625 C-183.00442622 100.26424604 -181.91838764 96.75017863 -180.66015625 93.203125 C-180.30953125 92.17058594 -179.95890625 91.13804688 -179.59765625 90.07421875 C-174.58481133 76.72403802 -165.45922339 66.2782222 -155.66015625 56.203125 C-155.12519531 55.64044922 -154.59023437 55.07777344 -154.0390625 54.49804688 C-149.97218502 50.29805489 -145.71014094 46.78223852 -140.91015625 43.453125 C-140.17845215 42.94362305 -139.44674805 42.43412109 -138.69287109 41.90917969 C-98.64300057 14.45174146 -48.47730042 0.23427791 0 0 Z " fill="#E4342F" transform="translate(185.66015625,-0.203125)"/>
<path d="M0 0 C3.06473004 0.01628338 6.12817723 -0.00005599 9.19287109 -0.01904297 C11.17334271 -0.01706336 13.15381353 -0.01322554 15.13427734 -0.00732422 C16.03441559 -0.01339691 16.93455383 -0.0194696 17.86196899 -0.02572632 C19.150392 -0.0115416 19.150392 -0.0115416 20.46484375 0.00292969 C21.57468124 0.00650986 21.57468124 0.00650986 22.7069397 0.01016235 C25.2228298 0.36503479 27.07291228 0.99316919 29.43031311 1.89033508 C35.2541414 3.90212715 40.87966099 3.81615581 46.98901367 3.79174805 C48.83475731 3.80221664 48.83475731 3.80221664 50.7177887 3.81289673 C53.37793917 3.82598341 56.03746097 3.83379189 58.69758034 3.83236885 C62.91492795 3.83031998 67.13201119 3.85000456 71.34928894 3.87254333 C79.5464668 3.91339116 87.74362325 3.93208329 95.94087982 3.94871521 C106.3634633 3.97111234 116.78598446 4.00490681 127.20846766 4.05591434 C131.38912108 4.07567759 135.56963514 4.08540533 139.75033343 4.0868665 C142.97966055 4.0902963 146.20893484 4.10621439 149.43823242 4.11987305 C151.14765015 4.11604362 151.14765015 4.11604362 152.89160156 4.11213684 C163.86534843 4.18148315 178.01112148 4.508115 186.54833984 12.35986328 C191.43392579 17.84125239 192.84568065 21.13140328 192.73974609 28.50830078 C191.9905513 35.01307442 188.22711873 38.95081877 183.34521484 43.01611328 C175.27013004 48.88890223 161.59989695 57.39111328 151.40771484 57.39111328 C151.74544922 57.91060547 152.08318359 58.43009766 152.43115234 58.96533203 C156.57420443 65.44334122 159.33537351 70.43758082 158.40771484 78.39111328 C156.56880018 84.94224676 152.8866398 88.63387997 147.40771484 92.39111328 C143.82503189 94.29018578 140.17180656 95.88885246 136.40771484 97.39111328 C135.60205078 97.73529297 134.79638672 98.07947266 133.96630859 98.43408203 C121.77564825 102.99394735 107.4737181 104.5107349 94.52442932 104.37115479 C91.59898426 104.33987259 88.67378559 104.34534078 85.74819946 104.34686279 C84.28871572 104.33484065 82.82923777 104.30265677 81.37069702 104.24884033 C72.28228526 103.91215674 72.28228526 103.91215674 64.2019043 107.72875977 C61.39121589 110.42887722 58.92612203 113.41984857 56.40771484 116.39111328 C54.17543225 118.3401917 51.84057016 119.98584101 49.34521484 121.57861328 C48.4150354 122.18322388 48.4150354 122.18322388 47.46606445 122.80004883 C35.10283102 130.56934406 21.40194138 135.4781065 7.40771484 139.39111328 C5.88984375 139.83583984 5.88984375 139.83583984 4.34130859 140.28955078 C-12.72113133 144.97881999 -30.1188224 144.64889506 -47.65478516 144.51611328 C-49.98616149 144.50605655 -52.31754206 144.4969355 -54.64892578 144.48876953 C-60.29680635 144.46698531 -65.94452527 144.43372403 -71.59228516 144.39111328 C-70.85117543 140.32815419 -69.65076825 137.10274405 -67.82666016 133.38330078 C-67.26591797 132.23087891 -66.70517578 131.07845703 -66.12744141 129.89111328 C-65.53266777 128.68264287 -64.93761439 127.47431009 -64.34228516 126.26611328 C-63.19007707 123.90991248 -62.03902159 121.55314767 -60.88916016 119.19580078 C-60.33421875 118.05852539 -59.77927734 116.92125 -59.20751953 115.74951172 C-56.92272627 110.99896514 -54.7410806 106.20446409 -52.59228516 101.39111328 C-53.48560547 101.60767578 -54.37892578 101.82423828 -55.29931641 102.04736328 C-77.90062371 106.90965805 -104.02707299 106.18232194 -126.59228516 101.39111328 C-127.2917627 101.24657715 -127.99124023 101.10204102 -128.71191406 100.953125 C-140.67031488 98.38878495 -154.06289896 94.13225396 -161.46728516 83.76611328 C-163.50337603 77.65784067 -163.76852767 71.78716285 -160.90478516 65.95361328 C-152.0754054 56.16970598 -138.64063009 52.91367964 -125.78436279 52.24508667 C-122.64395005 52.16704524 -119.50708824 52.13443581 -116.36572266 52.12548828 C-114.7385582 52.12035973 -114.7385582 52.12035973 -113.07852173 52.11512756 C-108.55454141 52.11328476 -104.03150337 52.12864608 -99.5078125 52.18164062 C-96.16804259 52.21439743 -92.83056352 52.20418871 -89.49072266 52.18798828 C-88.46989594 52.21165466 -87.44906921 52.23532104 -86.39730835 52.25970459 C-81.19887917 52.35563814 -81.19887917 52.35563814 -76.94044495 49.80345154 C-75.62042975 47.93005055 -75.62042975 47.93005055 -74.67100525 45.96110535 C-74.31502762 45.44300797 -73.95904999 44.92491058 -73.59228516 44.39111328 C-70.57771105 43.84442886 -68.72019405 43.69755854 -65.77978516 43.95361328 C-65.08691406 43.98519531 -64.39404297 44.01677734 -63.68017578 44.04931641 C-61.98236692 44.13127959 -60.28675913 44.25683421 -58.59228516 44.39111328 C-58.88103516 43.75947266 -59.16978516 43.12783203 -59.46728516 42.47705078 C-62.66815567 34.76384198 -63.61617679 27.70762081 -62.59228516 19.39111328 C-60.96728516 15.82861328 -60.96728516 15.82861328 -58.59228516 13.39111328 C-57.78791016 12.54548828 -56.98353516 11.69986328 -56.15478516 10.82861328 C-41.11307391 -0.75052582 -17.92716302 -0.11340784 0 0 Z " fill="#FEFAF9" transform="translate(177.59228515625,56.60888671875)"/>
<path d="M0 0 C1.63001953 0.01353516 1.63001953 0.01353516 3.29296875 0.02734375 C4.12441406 0.03894531 4.95585937 0.05054687 5.8125 0.0625 C5.81636719 0.91521484 5.81636719 0.91521484 5.8203125 1.78515625 C6.09315732 7.23295783 7.09829939 10.64000877 10.9765625 14.5546875 C18.92961728 21.08634525 28.00054079 20.90438414 37.8125 20.0625 C41.0356348 19.40993646 43.85400194 18.4859902 46.8125 17.0625 C47.76125 16.60875 48.71 16.155 49.6875 15.6875 C52.01039037 14.19512646 52.01039037 14.19512646 52.85823059 11.50038147 C54.8125 9.0625 54.8125 9.0625 56.65567589 8.59622002 C59.18405164 8.41509548 61.67098601 8.39888904 64.20581055 8.43139648 C65.16875534 8.42424118 66.13170013 8.41708588 67.12382507 8.40971375 C70.31610172 8.39276798 73.50698498 8.41227147 76.69921875 8.43359375 C78.91779191 8.43276526 81.13636502 8.43030662 83.35493469 8.42628479 C88.01146867 8.42342231 92.66752289 8.43816631 97.32397461 8.46557617 C103.28150499 8.49956007 109.23817165 8.49367773 115.19574261 8.4749136 C119.78126665 8.46431956 124.3665914 8.47330503 128.95209694 8.48829842 C131.14764628 8.49346971 133.34321653 8.49301125 135.53876305 8.48675346 C138.61703177 8.4812764 141.69408651 8.5017607 144.7722168 8.52905273 C145.67381531 8.52252686 146.57541382 8.51600098 147.5043335 8.50927734 C154.30803706 8.61135936 159.70280343 10.24433748 164.8125 14.875 C166.33601469 18.20768839 166.30482054 20.431636 165.8125 24.0625 C161.23672987 34.69307708 148.12707277 38.37238299 138.23779297 42.34741211 C137.43744629 42.67104736 136.63709961 42.99468262 135.8125 43.328125 C135.090625 43.61461914 134.36875 43.90111328 133.625 44.19628906 C131.62391692 45.02902321 131.62391692 45.02902321 129.8125 47.0625 C130.0516789 51.48730968 131.97396296 53.7938816 134.8125 57.0625 C136.8125 60.0625 136.8125 60.0625 136.6875 63.4375 C135.71687022 67.45868051 134.6118949 69.07169348 131.8125 72.0625 C118.08404438 80.17381653 102.16708245 79.33805582 86.8125 79.0625 C90.09018372 71.06901023 93.51484118 63.16125987 97.125 55.3125 C97.60138916 54.27407959 98.07777832 53.23565918 98.56860352 52.16577148 C101.92045901 44.89901176 105.40756591 37.71834339 109.05859375 30.59765625 C111.10193042 26.47912689 112.9452562 22.26379854 114.8125 18.0625 C103.5925 18.0625 92.3725 18.0625 80.8125 18.0625 C80.1525 20.0425 79.4925 22.0225 78.8125 24.0625 C78.26303778 25.36288364 77.69026843 26.65387776 77.0859375 27.9296875 C76.621875 28.91582031 76.621875 28.91582031 76.1484375 29.921875 C75.83132812 30.58703125 75.51421875 31.2521875 75.1875 31.9375 C74.86265625 32.62585938 74.5378125 33.31421875 74.203125 34.0234375 C73.40926528 35.70455219 72.61130442 37.38372921 71.8125 39.0625 C71.21824219 38.88074219 70.62398438 38.69898438 70.01171875 38.51171875 C67.28197224 37.68387961 64.54722252 36.87373984 61.8125 36.0625 C60.92433594 35.78792969 60.03617187 35.51335937 59.12109375 35.23046875 C45.19564382 31.11567059 30.46191637 31.78277148 16.0625 31.5 C13.99738868 31.45672019 11.9322844 31.4131032 9.8671875 31.36914062 C4.84903105 31.26303814 -0.16919868 31.16150353 -5.1875 31.0625 C-6.54605452 28.24060883 -7.86942103 25.40349455 -9.1875 22.5625 C-9.5690625 21.77101563 -9.950625 20.97953125 -10.34375 20.1640625 C-12.78643292 14.84250327 -13.78586738 10.92392674 -13.1875 5.0625 C-9.53076392 0.14482044 -5.83065173 -0.06269518 0 0 Z " fill="#E3342E" transform="translate(166.1875,69.9375)"/>
<path d="M0 0 C23.40395809 -0.3911525 23.40395809 -0.3911525 32 2 C32.7321875 2.18304688 33.464375 2.36609375 34.21875 2.5546875 C40.4378688 4.43434654 43.89241453 8.41929251 47.12890625 13.91796875 C49.427294 19.41142467 48.72126055 24.99174016 46.75 30.48046875 C43.00969691 38.4199547 38.39566359 44.94267356 32 51 C31.34773438 51.62261719 30.69546875 52.24523437 30.0234375 52.88671875 C17.38285518 63.74590626 -2.79589931 71.2865419 -19.375 71.0625 C-20.24898437 71.05347656 -21.12296875 71.04445313 -22.0234375 71.03515625 C-22.67570313 71.02355469 -23.32796875 71.01195312 -24 71 C-22.41056039 65.68337783 -20.10046167 60.88896327 -17.640625 55.9375 C-17.21376404 55.06915527 -16.78690308 54.20081055 -16.34710693 53.30615234 C-14.98500629 50.53564347 -13.618089 47.76755618 -12.25 45 C-6.53996244 33.44689534 -0.88730243 21.93003055 4 10 C2.68 10 1.36 10 0 10 C0 6.7 0 3.4 0 0 Z " fill="#E3342E" transform="translate(169,119)"/>
<path d="M0 0 C1.61371538 4.84114615 1.97689633 10.18611383 0.28125 15.0703125 C-4.22170655 23.45888479 -12.63193656 26.86269816 -21.26953125 29.76171875 C-36.14752765 33.43561979 -55.41724293 32.36666915 -68.8125 24.5 C-71.40426708 22.61195775 -73.61211306 20.94925976 -75 18 C-75.49042057 14.14669551 -75.39813491 11.81522862 -73.6875 8.3125 C-66.18699867 1.85858025 -55.69820569 0.91102787 -46.171875 0.68359375 C-45.42399719 0.66281265 -44.67611938 0.64203156 -43.90557861 0.62062073 C-42.32219646 0.57752858 -40.73875791 0.53646654 -39.15527344 0.49731445 C-36.79866603 0.43871023 -34.4423306 0.37325157 -32.0859375 0.30664062 C-21.38886055 0.01733752 -10.70059279 -0.05020385 0 0 Z " fill="#E2352F" transform="translate(129,119)"/>
<path d="M0 0 C2.52787213 -0.18003861 5.01471297 -0.19630123 7.54895973 -0.16380119 C8.51190453 -0.1709565 9.47484932 -0.1781118 10.46697426 -0.18548393 C13.65925091 -0.20242969 16.85013416 -0.18292621 20.04236794 -0.16160393 C22.2609411 -0.16243242 24.4795142 -0.16489106 26.69808388 -0.16891289 C31.35461786 -0.17177537 36.01067208 -0.15703137 40.66712379 -0.12962151 C46.62465418 -0.0956376 52.58132083 -0.10151994 58.53889179 -0.12028408 C63.12441583 -0.13087812 67.70974058 -0.12189265 72.29524612 -0.10689926 C74.49079546 -0.10172796 76.68636572 -0.10218643 78.88191223 -0.10844421 C81.96018095 -0.11392128 85.0372357 -0.09343698 88.11536598 -0.06614494 C89.01696449 -0.07267082 89.918563 -0.0791967 90.84748268 -0.08592033 C96.67920396 0.00157816 101.31846964 1.0641755 106.15564919 4.46730232 C106.65064919 5.45730232 106.65064919 5.45730232 107.15564919 6.46730232 C102.40564919 4.59230232 102.40564919 4.59230232 100.15564919 3.46730232 C98.8195596 3.36764348 97.47871917 3.32795631 96.13894081 3.3201313 C95.29911156 3.312976 94.4592823 3.30582069 93.59400368 3.29844856 C92.20924843 3.29441521 92.20924843 3.29441521 90.79651833 3.29030037 C89.8256881 3.28372917 88.85485786 3.27715797 87.85460854 3.27038765 C84.63334012 3.25063248 81.41211831 3.23898887 78.19080544 3.22902107 C76.54428899 3.22290778 76.54428899 3.22290778 74.86450958 3.21667099 C69.05799356 3.19580364 63.25150125 3.18150316 57.44495583 3.17213631 C51.43432488 3.16105315 45.42406225 3.126633 39.41356182 3.08696461 C34.80256883 3.06088188 30.19166484 3.05245205 25.58060455 3.04885483 C23.36414469 3.04396949 21.14768929 3.03230066 18.93130112 3.01381683 C15.83529062 2.98959646 12.74024981 2.9903588 9.64417458 2.99733162 C8.26245567 2.97811653 8.26245567 2.97811653 6.85282326 2.95851326 C2.02952482 2.83104041 2.02952482 2.83104041 -1.7850399 5.38339424 C-2.1346125 6.07108391 -2.4841851 6.75877357 -2.84435081 7.46730232 C-7.02731611 10.57771242 -7.02731611 10.57771242 -10.15685081 10.15480232 C-10.71372581 9.92792732 -11.27060081 9.70105232 -11.84435081 9.46730232 C-10.1190904 8.58839607 -8.39382998 7.70948982 -6.66856956 6.83058357 C-4.61986124 5.54541987 -4.61986124 5.54541987 -3.81741905 2.92154121 C-1.84435081 0.46730232 -1.84435081 0.46730232 0 0 Z " fill="#C7413B" transform="translate(222.84435081481934,78.5326976776123)"/>
<path d="M0 0 C0.93392578 0.16435547 0.93392578 0.16435547 1.88671875 0.33203125 C3.94587766 0.68527608 6.00747732 1.02436703 8.0703125 1.35546875 C10.80579274 1.80413102 13.51985039 2.28599207 16.2421875 2.80078125 C27.83682408 4.85494438 39.25623413 5.29984525 51 5.3125 C51.74549103 5.31590393 52.49098206 5.31930786 53.25906372 5.32281494 C61.75538824 5.34502878 69.87822724 4.96723627 78.265625 3.42651367 C80.89534638 3.0163241 83.34394538 2.92396559 86 3 C84.41980408 8.2063297 82.22115005 12.98373311 79.875 17.875 C79.50246094 18.65875 79.12992187 19.4425 78.74609375 20.25 C77.83381003 22.16813499 76.91733016 24.08427329 76 26 C75.4140625 24.15625 75.4140625 24.15625 75 22 C76.375 19.5 76.375 19.5 78 17 C78.69579454 14.80869466 78.69579454 14.80869466 79 13 C79.66 13 80.32 13 81 13 C81.33 10.69 81.66 8.38 82 6 C81.43651855 6.14147461 80.87303711 6.28294922 80.29248047 6.42871094 C71.47867819 8.34908371 62.76743031 8.3036515 53.79443359 8.26074219 C51.13746164 8.25005015 48.48116983 8.26067078 45.82421875 8.2734375 C22.58376375 8.29188188 22.58376375 8.29188188 16 5 C14.23074468 4.87179309 12.45940825 4.77141988 10.6875 4.6875 C5.96639611 4.31575954 3.34231612 3.57282068 0 0 Z " fill="#CF3F38" transform="translate(39,155)"/>
<path d="M0 0 C0.66 0 1.32 0 2 0 C1.67 0.99 1.34 1.98 1 3 C0.19316492 9.70598991 1.52543377 14.29623179 5 20 C8 24.92857143 8 24.92857143 8 27 C9.9190918 26.98428955 9.9190918 26.98428955 11.87695312 26.96826172 C16.70032872 26.93159967 21.52369246 26.90893436 26.34716797 26.89013672 C28.42043134 26.880183 30.49368107 26.86661517 32.56689453 26.84912109 C58.57173504 26.63545155 58.57173504 26.63545155 69 29 C69.495 29.99 69.495 29.99 70 31 C72.52733235 31.65555119 72.52733235 31.65555119 75 32 C75 32.66 75 33.32 75 34 C74.20078125 33.79503906 73.4015625 33.59007812 72.578125 33.37890625 C71.47984375 33.10949219 70.3815625 32.84007812 69.25 32.5625 C68.18265625 32.29566406 67.1153125 32.02882812 66.015625 31.75390625 C53.39061872 29.14077061 40.08410648 29.68953239 27.25 29.4375 C25.18488868 29.39422019 23.1197844 29.3506032 21.0546875 29.30664062 C16.03653105 29.20053814 11.01830132 29.09900353 6 29 C4.64144548 26.17810883 3.31807897 23.34099455 2 20.5 C1.6184375 19.70851563 1.236875 18.91703125 0.84375 18.1015625 C-1.60022222 12.77719445 -2.61193142 8.86434274 -2 3 C-1.34 2.01 -0.68 1.02 0 0 Z " fill="#CA473F" transform="translate(155,72)"/>
<path d="M0 0 C1.62932575 4.88797724 2.0698293 10.35579307 0.10546875 15.2109375 C-1 17.125 -1 17.125 -3 20 C-3.495 18.02 -3.495 18.02 -4 16 C-3.34 16 -2.68 16 -2 16 C-1.67 11.38 -1.34 6.76 -1 2 C-3.64624284 2.14021805 -6.29184578 2.28689776 -8.9375 2.4375 C-10.06961914 2.49647461 -10.06961914 2.49647461 -11.22460938 2.55664062 C-14.91944187 2.44038024 -14.91944187 2.44038024 -18 4 C-20.70649928 4.06399472 -23.38815024 4.06612447 -26.09375 4.02734375 C-27.78124783 4.0146811 -29.46874795 4.00232138 -31.15625 3.99023438 C-33.817781 3.96556343 -36.47919258 3.93776356 -39.140625 3.90405273 C-41.70834037 3.87354189 -44.27590925 3.85596846 -46.84375 3.83984375 C-47.62536499 3.82638412 -48.40697998 3.8129245 -49.21228027 3.79905701 C-55.86639235 3.76935273 -62.36563854 4.24375903 -68 8 C-70.1875 7.625 -70.1875 7.625 -72 7 C-60.65110155 0.69505642 -49.19810649 0.62790835 -36.5 0.375 C-34.96352283 0.33668548 -33.42706404 0.29762677 -31.890625 0.2578125 C-21.25979655 -0.0029787 -10.63356176 -0.04264797 0 0 Z " fill="#CD524B" transform="translate(129,119)"/>
<path d="M0 0 C-3.09419048 1.77736058 -5.5795259 2.31378764 -9.125 2.5625 C-12.69798773 2.78049065 -12.69798773 2.78049065 -16 4 C-18.60366523 4.07206473 -21.18584667 4.08847488 -23.7890625 4.0703125 C-25.38672961 4.07890333 -26.98438748 4.08938171 -28.58203125 4.1015625 C-31.09721856 4.11819669 -33.61035151 4.12514874 -36.12548828 4.09960938 C-47.31476835 3.60960958 -47.31476835 3.60960958 -56.9453125 8.41796875 C-57.97824662 9.599281 -58.9983404 10.79205565 -60 12 C-61.99408077 13.34216975 -63.99301025 14.6772113 -66 16 C-67.0828125 17.11375 -67.0828125 17.11375 -68.1875 18.25 C-70 20 -70 20 -73 20 C-73 20.66 -73 21.32 -73 22 C-73.66 22 -74.32 22 -75 22 C-75 22.66 -75 23.32 -75 24 C-76.65 24 -78.3 24 -80 24 C-76.53387278 20.14740563 -72.02538031 17.64561119 -67.71484375 14.83984375 C-65.36676492 13.22813325 -63.74639191 11.69751107 -61.90112305 9.49658203 C-58.37977628 5.35299665 -55.78489141 2.42794515 -50.38208008 1.13256836 C-46.19997832 0.86190292 -42.12110956 0.86916485 -37.9375 1 C-35.72263135 1.01472201 -33.50819563 1.01221715 -31.29328918 1.00900269 C-29.84698157 1.00821448 -28.40065872 1.01312176 -26.95439148 1.0239563 C-20.15872129 1.06356441 -13.65063376 0.32705593 -6.94921875 -0.6953125 C-4.24246779 -0.97495035 -2.54017156 -0.89062805 0 0 Z " fill="#D3423B" transform="translate(299,159)"/>
<path d="M0 0 C21.87645934 -1.67421883 44.21952157 4.82947018 65 11 C65 11.33 65 11.66 65 12 C58.17632894 12.3529485 52.26777576 11.3201604 45.62109375 9.7890625 C42.1898181 9.04136274 38.78902007 8.4877876 35.3125 8 C31.21409577 7.40883624 27.34738969 6.60386123 23.375 5.4375 C17.95217688 3.85617603 12.62567963 3.31556037 7 3 C7 2.34 7 1.68 7 1 C4.69 1 2.38 1 0 1 C0 0.67 0 0.34 0 0 Z " fill="#E38A82" transform="translate(227,2)"/>
<path d="M0 0 C5.94 0 11.88 0 18 0 C18 0.33 18 0.66 18 1 C30.28076451 2.98894745 42.3289624 3.28137205 54.75048828 3.20581055 C57.918374 3.18724582 61.08597113 3.1853036 64.25390625 3.18554688 C66.27083588 3.18064128 68.28776353 3.17481719 70.3046875 3.16796875 C71.25036591 3.16685593 72.19604431 3.1657431 73.17037964 3.16459656 C74.47412033 3.15502678 74.47412033 3.15502678 75.80419922 3.14526367 C76.56868378 3.14145187 77.33316833 3.13764008 78.12081909 3.13371277 C80.09089812 3.11396905 80.09089812 3.11396905 82 2 C93.00969519 -0.07187945 103.83565245 -0.23019273 115 0 C115 0.33 115 0.66 115 1 C111.93837063 1.48534304 108.87586396 1.96332919 105.8125 2.4375 C104.96751953 2.57220703 104.12253906 2.70691406 103.25195312 2.84570312 C89.24967335 4.99586594 75.37571687 5.18637233 61.23779297 5.18530273 C58.03469283 5.18747646 54.83194521 5.20565211 51.62890625 5.22460938 C34.27233998 5.27176782 17.06732653 4.3215915 0 1 C0 0.67 0 0.34 0 0 Z " fill="#FAADA3" transform="translate(141,232)"/>
<path d="M0 0 C0.33 0 0.66 0 1 0 C1 2.64 1 5.28 1 8 C0.34 8 -0.32 8 -1 8 C-0.979375 8.94875 -0.95875 9.8975 -0.9375 10.875 C-1 14 -1 14 -2 16 C-2.07187519 18.71975715 -2.0927862 21.40674632 -2.0625 24.125 C-2.041875 26.72375 -2.02125 29.3225 -2 32 C-1.67 26.72 -1.34 21.44 -1 16 C-0.67 16 -0.34 16 0 16 C0.02505615 16.78238037 0.0501123 17.56476074 0.07592773 18.37084961 C0.19149788 21.89324949 0.31439949 25.4153556 0.4375 28.9375 C0.47681641 30.16919922 0.51613281 31.40089844 0.55664062 32.66992188 C0.59853516 33.83974609 0.64042969 35.00957031 0.68359375 36.21484375 C0.72025146 37.29886475 0.75690918 38.38288574 0.79467773 39.49975586 C0.72364265 41.939263 0.72364265 41.939263 2 43 C3.30648432 47.61560884 4.31080611 52.1825053 4 57 C4.99 57 5.98 57 7 57 C7.12375 58.134375 7.2475 59.26875 7.375 60.4375 C7.58125 61.613125 7.7875 62.78875 8 64 C8.66 64.33 9.32 64.66 10 65 C9.67 66.32 9.34 67.64 9 69 C0.44943622 55.23743526 -4.39946863 42.10096042 -4.375 25.8125 C-4.37628906 24.90991455 -4.37757813 24.0073291 -4.37890625 23.07739258 C-4.25161022 14.90947172 -2.65369522 7.71230173 0 0 Z " fill="#D83730" transform="translate(5,93)"/>
<path d="M0 0 C6.18671107 0.51989169 11.30476539 3.21325269 16.8125 5.875 C17.83206787 6.36677734 18.85163574 6.85855469 19.90209961 7.36523438 C44.62715204 19.5406699 75.08576785 39.78092628 85 67 C84.505 68.485 84.505 68.485 84 70 C83.6596875 69.33355469 83.319375 68.66710937 82.96875 67.98046875 C65.4272592 34.6236445 34.05252539 14.76132167 0 1 C0 0.67 0 0.34 0 0 Z " fill="#FCD7D0" transform="translate(306,19)"/>
<path d="M0 0 C2.0245738 1.93254772 3.42105792 3.63158688 5 6 C4.80084481 11.37719004 3.64399907 14.1068386 0 18 C-13.72845562 26.11131653 -29.64541755 25.27555582 -45 25 C-44.66226563 24.19175781 -44.32453125 23.38351563 -43.9765625 22.55078125 C-43.30753906 20.94783203 -43.30753906 20.94783203 -42.625 19.3125 C-42.18414062 18.25675781 -41.74328125 17.20101562 -41.2890625 16.11328125 C-40.17242538 13.41643343 -39.07708199 10.71283736 -38 8 C-37.67 8 -37.34 8 -37 8 C-36.75 15.625 -36.75 15.625 -39 19 C-39.66 19 -40.32 19 -41 19 C-41 20.32 -41 21.64 -41 23 C-37.93722733 22.85873374 -34.87486458 22.71215604 -31.8125 22.5625 C-30.94818359 22.52318359 -30.08386719 22.48386719 -29.19335938 22.44335938 C-25.02287356 22.23563403 -21.08698585 21.901541 -17 21 C-14.66698014 20.96175377 -12.33288492 20.95425716 -10 21 C-10 20.34 -10 19.68 -10 19 C-8.35 19 -6.7 19 -5 19 C-5 18.34 -5 17.68 -5 17 C-3.02 16.34 -1.04 15.68 1 15 C1.91457003 9.43842552 2.32086397 5.324335 0 0 Z " fill="#CB453E" transform="translate(298,124)"/>
<path d="M0 0 C27.97152069 -0.4674906 27.97152069 -0.4674906 40 5 C40.66 5.99 41.32 6.98 42 8 C39.36 7.34 36.72 6.68 34 6 C34 5.67 34 5.34 34 5 C27.15033128 2.95507463 20.62317597 2.57949309 13.5 2.375 C12.39140625 2.33632812 11.2828125 2.29765625 10.140625 2.2578125 C7.42724203 2.16424757 4.71385339 2.07850517 2 2 C2 3.98 2 5.96 2 8 C3.32 8 4.64 8 6 8 C6.39742136 12.50410877 5.09041596 15.06036992 3 19 C2.31039038 20.99220557 1.63920943 22.99105606 1 25 C0.67 25.66 0.34 26.32 0 27 C-0.66 27 -1.32 27 -2 27 C-2.33 27.99 -2.66 28.98 -3 30 C-4 28 -4 28 -3.37915039 26.12060547 C-3.03875732 25.37697754 -2.69836426 24.63334961 -2.34765625 23.8671875 C-1.98349609 23.06152344 -1.61933594 22.25585938 -1.24414062 21.42578125 C-0.85419922 20.58402344 -0.46425781 19.74226563 -0.0625 18.875 C0.32357422 18.02550781 0.70964844 17.17601562 1.10742188 16.30078125 C2.06465908 14.19722296 3.02908723 12.09727268 4 10 C2.68 10 1.36 10 0 10 C0 6.7 0 3.4 0 0 Z " fill="#D05C55" transform="translate(169,119)"/>
<path d="M0 0 C1.32 0.33 2.64 0.66 4 1 C2.67504883 3.46240234 2.67504883 3.46240234 0 6 C-3.58762344 6.76010281 -7.14561456 6.64910092 -10.80078125 6.6015625 C-12.40363228 6.61357193 -12.40363228 6.61357193 -14.03886414 6.62582397 C-17.46379215 6.64891768 -20.88754001 6.63944826 -24.3125 6.625 C-44.85107085 6.51329084 -44.85107085 6.51329084 -65 10 C-65.87946289 10.21116455 -66.75892578 10.4223291 -67.66503906 10.63989258 C-69.44917056 11.06982457 -71.22616421 11.5293905 -73 12 C-73 11.34 -73 10.68 -73 10 C-70.83771285 9.36001271 -68.66976195 8.73916816 -66.5 8.125 C-65.2934375 7.77695313 -64.086875 7.42890625 -62.84375 7.0703125 C-48.69223184 3.6610261 -34.45582048 3.74367355 -20 3.875 C-18.04948382 3.8850609 -16.09896255 3.89418119 -14.1484375 3.90234375 C-9.43216291 3.92408551 -4.71613986 3.95843966 0 4 C0 2.68 0 1.36 0 0 Z " fill="#C94F47" transform="translate(99,103)"/>
<path d="M0 0 C-5.63871485 4.67207802 -11.9479036 5.58789965 -19 7 C-24.42311936 7.70760358 -24.42311936 7.70760358 -29 10 C-31.29869037 10.25210179 -33.56404329 10.42980424 -35.87109375 10.55859375 C-36.6133873 10.60084579 -37.35568085 10.64309784 -38.12046814 10.68663025 C-49.75708891 11.26838456 -61.41537158 11.10479516 -73.0625 11.0625 C-75.49023345 11.05747229 -77.91796791 11.05291165 -80.34570312 11.04882812 C-86.23049128 11.03792937 -92.11524075 11.02129308 -98 11 C-97.67 10.34 -97.34 9.68 -97 9 C-96.41134659 9.00444122 -95.82269318 9.00888245 -95.21620178 9.01345825 C-89.00133736 9.05825155 -82.78651993 9.0880945 -76.5715332 9.10986328 C-74.26259494 9.11982322 -71.95366895 9.13339603 -69.64477539 9.15087891 C-52.05610622 9.28057198 -35.29932263 9.02760172 -18.3125 4 C-17.39017578 3.73960937 -16.46785156 3.47921875 -15.51757812 3.2109375 C-11.79425131 2.15095373 -8.12965773 1.04604936 -4.48046875 -0.25 C-2 -1 -2 -1 0 0 Z " fill="#D56F69" transform="translate(203,191)"/>
<path d="M0 0 C1.07024414 0.0707373 2.14048828 0.14147461 3.24316406 0.21435547 C13.92455493 0.88453603 24.56219429 1.15790855 35.26367188 1.13037109 C37.79042305 1.12491268 40.31700347 1.13041159 42.84375 1.13671875 C44.47395872 1.13605936 46.10416734 1.1347811 47.734375 1.1328125 C48.47814392 1.13483673 49.22191284 1.13686096 49.98822021 1.13894653 C54.10709063 1.12045799 57.94865329 0.69022406 62 0 C64.34214207 0.2644354 66.68025766 0.58244638 69 1 C69 1.33 69 1.66 69 2 C58.932034 3.9118192 49.20255868 4.35666871 39 4.3125 C38.23763031 4.31233887 37.47526062 4.31217773 36.68978882 4.31201172 C24.25696882 4.29377103 12.22598541 3.38555813 0 1 C0 0.67 0 0.34 0 0 Z " fill="#FBD3CE" transform="translate(51,157)"/>
<path d="M0 0 C0.33 0.66 0.66 1.32 1 2 C2.9190918 1.98428955 2.9190918 1.98428955 4.87695312 1.96826172 C9.70032872 1.93159967 14.52369246 1.90893436 19.34716797 1.89013672 C21.42043134 1.880183 23.49368107 1.86661517 25.56689453 1.84912109 C51.57173504 1.63545155 51.57173504 1.63545155 62 4 C62.495 4.99 62.495 4.99 63 6 C65.52733235 6.65555119 65.52733235 6.65555119 68 7 C68 7.66 68 8.32 68 9 C67.20078125 8.79503906 66.4015625 8.59007813 65.578125 8.37890625 C58.77907895 6.71106514 52.25841604 5.59535795 45.265625 5.2109375 C43 5 43 5 42 4 C38.89914779 3.83958807 35.81812421 3.74036598 32.71484375 3.68359375 C31.31861534 3.6524221 31.31861534 3.6524221 29.8941803 3.62062073 C26.90869818 3.55502069 23.92312516 3.49619198 20.9375 3.4375 C18.91861024 3.3943247 16.8997298 3.35071075 14.88085938 3.30664062 C9.92066703 3.19932871 4.96038291 3.09809112 0 3 C0 2.01 0 1.02 0 0 Z " fill="#D83830" transform="translate(162,97)"/>
<path d="M0 0 C0.495 1.485 0.495 1.485 1 3 C-1.17532617 5.91414332 -2.56595467 7.71885153 -6.20959473 8.43319702 C-8.9700138 8.54525621 -11.69185602 8.50891379 -14.453125 8.41796875 C-15.46791931 8.40615067 -16.48271362 8.39433258 -17.52825928 8.38215637 C-20.76972415 8.34100089 -24.00924763 8.26621981 -27.25 8.1875 C-30.4762564 8.12453806 -33.7023221 8.06895597 -36.92889404 8.02497864 C-38.93370504 7.99606976 -40.93839496 7.95562302 -42.94268799 7.9016571 C-48.25668155 7.80799077 -52.98795856 8.2021077 -58.139328 9.54411316 C-61.76003273 10.43122902 -65.30005529 10.11745856 -69 10 C-61.48634282 4.99089522 -50.78145719 5.72622648 -42.03125 5.76171875 C-39.80988955 5.74632418 -37.58853523 5.73002249 -35.3671875 5.71289062 C-31.91294663 5.69634543 -28.45916073 5.68758273 -25.00488281 5.69458008 C-21.6381591 5.69718884 -18.27279253 5.66919845 -14.90625 5.63671875 C-13.35315125 5.65202888 -13.35315125 5.65202888 -11.76867676 5.66764832 C-5.94604196 5.70535836 -5.94604196 5.70535836 -1.31835938 2.46020508 C-0.88330078 1.6483374 -0.44824219 0.83646973 0 0 Z " fill="#FDDED8" transform="translate(103,103)"/>
<path d="M0 0 C0.66 0 1.32 0 2 0 C0.04499203 6.67002719 -2.71564652 12.56026865 -5.8828125 18.73828125 C-10.22591347 27.34217953 -14.05359272 36.20924345 -18 45 C-19.31538327 40.84228506 -18.34433068 38.1120703 -17 34 C-16.34 34 -15.68 34 -15 34 C-14.81824219 33.43152344 -14.63648438 32.86304688 -14.44921875 32.27734375 C-12.85915366 27.39298997 -11.09540222 22.68970973 -9 18 C-8.34 18 -7.68 18 -7 18 C-6.89816406 17.14148438 -6.79632813 16.28296875 -6.69140625 15.3984375 C-5.94202588 11.71504245 -4.67376769 8.94976792 -2.9375 5.625 C-2.38964844 4.56539063 -1.84179688 3.50578125 -1.27734375 2.4140625 C-0.85582031 1.61742188 -0.43429687 0.82078125 0 0 Z " fill="#FDE1DB" transform="translate(272,103)"/>
<path d="M0 0 C0 0.33 0 0.66 0 1 C-0.70084717 0.99363525 -1.40169434 0.98727051 -2.1237793 0.98071289 C-5.31276037 0.97200487 -8.49885502 1.01671245 -11.6875 1.0625 C-13.34168945 1.04606445 -13.34168945 1.04606445 -15.02929688 1.02929688 C-20.82354046 0.95423915 -20.82354046 0.95423915 -25.74243164 3.52612305 C-27.03991021 5.36115733 -27.03991021 5.36115733 -28.06518555 7.30493164 C-29.30984 9.56182271 -30.81690643 10.4865762 -33.0625 11.6875 C-35.589292 13.12188193 -37.22386764 14.22386764 -39.3125 16.3125 C-39.869375 16.869375 -40.42625 17.42625 -41 18 C-41.99 18 -42.98 18 -44 18 C-44 18.66 -44 19.32 -44 20 C-44.66 20 -45.32 20 -46 20 C-46 20.66 -46 21.32 -46 22 C-47.65 22 -49.3 22 -51 22 C-47.8995058 18.5538061 -44.01137465 16.28653902 -40.15136719 13.77563477 C-36.16057672 11.07984387 -33.65291755 8.3301742 -30.75 4.4375 C-23.40482684 -3.56305056 -9.90218123 -0.73559061 0 0 Z " fill="#C44842" transform="translate(270,161)"/>
<path d="M0 0 C0 0.33 0 0.66 0 1 C-0.85464844 1.13277344 -1.70929688 1.26554688 -2.58984375 1.40234375 C-3.69457031 1.57894531 -4.79929688 1.75554688 -5.9375 1.9375 C-7.03964844 2.11152344 -8.14179688 2.28554687 -9.27734375 2.46484375 C-11.90426929 2.71845136 -11.90426929 2.71845136 -13 4 C-15.01964199 4.07244053 -17.04167124 4.08377188 -19.0625 4.0625 C-20.16722656 4.05347656 -21.27195313 4.04445313 -22.41015625 4.03515625 C-23.26480469 4.02355469 -24.11945313 4.01195312 -25 4 C-25 4.66 -25 5.32 -25 6 C-28.96 6 -32.92 6 -37 6 C-37 6.66 -37 7.32 -37 8 C-39.31 8 -41.62 8 -44 8 C-44 8.66 -44 9.32 -44 10 C-46.97 10 -49.94 10 -53 10 C-50.21745565 8.14497043 -48.72142141 7.54032574 -45.5625 6.81640625 C-44.67651123 6.61233154 -43.79052246 6.40825684 -42.87768555 6.19799805 C-41.92804932 5.98828369 -40.97841309 5.77856934 -40 5.5625 C-39.02264893 5.34440674 -38.04529785 5.12631348 -37.03833008 4.90161133 C-30.61424584 3.49833987 -24.17808222 2.24149814 -17.6875 1.1875 C-16.94306641 1.06383057 -16.19863281 0.94016113 -15.43164062 0.81274414 C-10.24383774 0.01834723 -5.24752585 -0.09842349 0 0 Z " fill="#CF5249" transform="translate(167,3)"/>
<path d="M0 0 C5.81562053 0.5805254 8.43481283 3.99493139 12.40234375 7.96875 C15.37718575 10.29494224 17.338634 10.43865797 21 11 C22.42578125 12.55859375 22.42578125 12.55859375 23.3125 14.4375 C24.19403065 16.29850916 25.07908183 18.15816366 26 20 C16.17524134 16.59360557 7.31332327 8.23945132 0 1 C0 0.67 0 0.34 0 0 Z " fill="#DF8077" transform="translate(31,181)"/>
<path d="M0 0 C2.45553446 2.45553446 2.40630497 3.34394066 2.5625 6.75 C2.32566844 18.04390522 -4.60587815 27.31911068 -12.08203125 35.20703125 C-14 37 -14 37 -16 38 C-16 37.01 -16 36.02 -16 35 C-15.01 34.34 -14.02 33.68 -13 33 C-12.835 32.319375 -12.67 31.63875 -12.5 30.9375 C-12.335 30.298125 -12.17 29.65875 -12 29 C-11.01 28.67 -10.02 28.34 -9 28 C-8.67 27.34 -8.34 26.68 -8 26 C-7.34 26 -6.68 26 -6 26 C-6 25.01 -6 24.02 -6 23 C-5.34 23 -4.68 23 -4 23 C-3.87625 22.29875 -3.7525 21.5975 -3.625 20.875 C-3 18 -3 18 -2 15.4375 C-0.52575018 10.36976623 -0.3228859 5.25114431 0 0 Z " fill="#CC473E" transform="translate(215,133)"/>
<path d="M0 0 C0.33 0 0.66 0 1 0 C1 2.64 1 5.28 1 8 C0.34 8 -0.32 8 -1 8 C-0.979375 8.94875 -0.95875 9.8975 -0.9375 10.875 C-1 14 -1 14 -2 16 C-2.59814995 25.22531276 -1.99598701 33.85247645 0.02050781 42.85791016 C0.73651564 46.10984828 1.07708034 47.76875899 0 51 C-0.48212214 49.43840941 -0.96055873 47.87568072 -1.4375 46.3125 C-1.70433594 45.44238281 -1.97117188 44.57226562 -2.24609375 43.67578125 C-6.28149869 29.35323005 -4.78960136 13.91977894 0 0 Z " fill="#F5C6C0" transform="translate(5,93)"/>
<path d="M0 0 C6.61972219 7.25017192 6.50504898 16.93581569 6.44604492 26.20947266 C6.43757058 28.23314563 6.46631605 30.25395052 6.49804688 32.27734375 C6.49368874 41.17665014 5.12738991 48.66858355 2 57 C0.64984141 52.94952424 1.37915002 50.2079832 2 46 C2.66 46 3.32 46 4 46 C4.08852235 41.60429784 4.14089579 37.2088306 4.1875 32.8125 C4.21263672 31.58595703 4.23777344 30.35941406 4.26367188 29.09570312 C4.330746 20.62200502 3.17143052 13.16857968 1 5 C0.65365555 3.33598846 0.31573552 1.67008981 0 0 Z " fill="#F9C5BC" transform="translate(391,89)"/>
<path d="M0 0 C11.22 0 22.44 0 34 0 C33.16717288 4.16413559 32.33920962 6.65536612 30.4375 10.3125 C29.98246094 11.19550781 29.52742188 12.07851562 29.05859375 12.98828125 C28.70925781 13.65214844 28.35992187 14.31601563 28 15 C27.67 15 27.34 15 27 15 C27 10 27 10 32 1 C22.1 1.33 12.2 1.66 2 2 C1.01 3.98 0.02 5.96 -1 8 C-1.66 8 -2.32 8 -3 8 C-1.125 2.25 -1.125 2.25 0 0 Z " fill="#FEDBD4" transform="translate(247,88)"/>
<path d="M0 0 C11.55 0 23.1 0 35 0 C35 5.75078482 34.103294 8.5604138 31.5 13.375 C31.16613281 14.01566406 30.83226562 14.65632813 30.48828125 15.31640625 C29.66973549 16.88333671 28.83635487 18.44250241 28 20 C27.34 20 26.68 20 26 20 C28.17306747 13.48079759 31.12029812 7.23935408 34 1 C22.78 1 11.56 1 0 1 C0 0.67 0 0.34 0 0 Z " fill="#D35C52" transform="translate(247,87)"/>
<path d="M0 0 C-1.58019592 5.2063297 -3.77884995 9.98373311 -6.125 14.875 C-6.49753906 15.65875 -6.87007812 16.4425 -7.25390625 17.25 C-8.16618997 19.16813499 -9.08266984 21.08427329 -10 23 C-10.5859375 21.15625 -10.5859375 21.15625 -11 19 C-9.625 16.5 -9.625 16.5 -8 14 C-7.30420546 11.80869466 -7.30420546 11.80869466 -7 10 C-6.34 10 -5.68 10 -5 10 C-4.67 7.69 -4.34 5.38 -4 3 C-8.62 3 -13.24 3 -18 3 C-18 2.67 -18 2.34 -18 2 C-15.93827387 1.66191314 -13.8755797 1.32972639 -11.8125 1 C-10.66394531 0.814375 -9.51539062 0.62875 -8.33203125 0.4375 C-5.49584607 0.06510523 -2.85280436 -0.08596021 0 0 Z " fill="#CD584E" transform="translate(125,158)"/>
<path d="M0 0 C-1.98 0.66 -3.96 1.32 -6 2 C-6 2.66 -6 3.32 -6 4 C-6.70125 4.391875 -7.4025 4.78375 -8.125 5.1875 C-11.95397899 7.60142153 -14.89855547 9.92447121 -17 14 C-17.49144939 18.05319087 -17.36003173 21.93964219 -17 26 C-19.97982138 21.53026793 -19.60816742 17.24075136 -19 12 C-15.95943039 5.80624709 -7.62832011 -3.2273662 0 0 Z " fill="#FEE5DE" transform="translate(34,114)"/>
<path d="M0 0 C-2.1847753 1.27571484 -4.37261619 2.54560673 -6.5625 3.8125 C-7.17158203 4.16892578 -7.78066406 4.52535156 -8.40820312 4.89257812 C-12.50430215 7.25487862 -16.55133641 9.37691183 -21 11 C-21.99 10.67 -22.98 10.34 -24 10 C-22.6875 8.5 -22.6875 8.5 -21 7 C-20.01 7 -19.02 7 -18 7 C-18 6.34 -18 5.68 -18 5 C-15.09399739 3.74335022 -13.20395416 3 -10 3 C-10 2.34 -10 1.68 -10 1 C-8.71073008 0.63720544 -7.41846728 0.28503302 -6.125 -0.0625 C-5.04605469 -0.35833984 -5.04605469 -0.35833984 -3.9453125 -0.66015625 C-2 -1 -2 -1 0 0 Z " fill="#E2847D" transform="translate(338,204)"/>
<path d="M0 0 C0.33 0 0.66 0 1 0 C1.10957031 1.00160156 1.21914062 2.00320312 1.33203125 3.03515625 C2.12253104 9.80370443 2.97916526 15.82101984 6 22 C6 23.32 6 24.64 6 26 C0.39 26 -5.22 26 -11 26 C-11 25.67 -11 25.34 -11 25 C-6.05 25 -1.1 25 4 25 C3.01 22.710625 3.01 22.710625 2 20.375 C-0.51886197 13.57229884 -0.37659212 7.16571116 0 0 Z " fill="#FAD0C8" transform="translate(115,76)"/>
<path d="M0 0 C2.64 0 5.28 0 8 0 C3.71063814 3.46919278 -0.84011333 4.9587822 -6 6.75 C-6.90234375 7.07871094 -7.8046875 7.40742188 -8.734375 7.74609375 C-9.60578125 8.05160156 -10.4771875 8.35710937 -11.375 8.671875 C-12.16648437 8.9512793 -12.95796875 9.23068359 -13.7734375 9.51855469 C-16.22822069 10.04934772 -17.64661453 9.80192416 -20 9 C-17.69 8.01 -15.38 7.02 -13 6 C-13 5.67 -13 5.34 -13 5 C-9.7 4.67 -6.4 4.34 -3 4 C-3 3.34 -3 2.68 -3 2 C-2.01 2 -1.02 2 0 2 C0 1.34 0 0.68 0 0 Z " fill="#E59087" transform="translate(306,215)"/>
<path d="M0 0 C2.0245738 1.93254772 3.42105792 3.63158688 5 6 C4.80097707 11.37361921 3.66529688 14.12490498 0 18 C-2.875 19.6171875 -2.875 19.6171875 -6 20.875 C-7.03125 21.30554688 -8.0625 21.73609375 -9.125 22.1796875 C-12.00814981 23.00232535 -13.2550347 23.06895283 -16 22 C-14.02 21.67 -12.04 21.34 -10 21 C-10 20.34 -10 19.68 -10 19 C-8.35 19 -6.7 19 -5 19 C-5 18.34 -5 17.68 -5 17 C-3.02 16.34 -1.04 15.68 1 15 C1.91457003 9.43842552 2.32086397 5.324335 0 0 Z " fill="#CC554B" transform="translate(298,124)"/>
<path d="M0 0 C0.99 0.33 1.98 0.66 3 1 C-12.61111111 14 -12.61111111 14 -16 14 C-16.33 13.01 -16.66 12.02 -17 11 C-16.01 11 -15.02 11 -14 11 C-14 10.34 -14 9.68 -14 9 C-12.68 9 -11.36 9 -10 9 C-10 8.34 -10 7.68 -10 7 C-9.34 7 -8.68 7 -8 7 C-8 6.34 -8 5.68 -8 5 C-7.34 5 -6.68 5 -6 5 C-6 4.34 -6 3.68 -6 3 C-4.02 2.67 -2.04 2.34 0 2 C0 1.34 0 0.68 0 0 Z " fill="#E08077" transform="translate(359,186)"/>
<path d="M0 0 C0.66 0.33 1.32 0.66 2 1 C1.2575 1.8971875 1.2575 1.8971875 0.5 2.8125 C-1.71852844 7.52687293 -1.67555571 11.8745882 -1 17 C0.45276871 20.94526404 2.78423476 24.26659955 6 27 C1.51619366 26.25919721 -0.21794903 24.18861651 -2.796875 20.59375 C-5.08840854 15.65356081 -4.73005879 10.30696581 -4 5 C-2.55 1.275 -2.55 1.275 0 0 Z " fill="#CE5046" transform="translate(17,120)"/>
<path d="M0 0 C4.83628305 0.99043705 9.47618873 1.95698846 14 4 C14 4.66 14 5.32 14 6 C14.56847656 6.18175781 15.13695312 6.36351562 15.72265625 6.55078125 C20.60701003 8.14084634 25.31029027 9.90459778 30 12 C30 12.33 30 12.66 30 13 C25.9333855 13.27644249 23.51367348 12.53745135 19.9375 10.625 C18.68259766 9.96371094 18.68259766 9.96371094 17.40234375 9.2890625 C16.60957031 8.86367188 15.81679688 8.43828125 15 8 C14.25878906 7.63648438 13.51757812 7.27296875 12.75390625 6.8984375 C11 6 11 6 10 5 C8.88625 4.896875 7.7725 4.79375 6.625 4.6875 C3 4 3 4 1.0625 1.9375 C0.711875 1.298125 0.36125 0.65875 0 0 Z " fill="#CE5148" transform="translate(292,14)"/>
<path d="M0 0 C0 0.33 0 0.66 0 1 C-10.94163157 3.53718993 -21.83733848 3.20392721 -33 3 C-33 2.67 -33 2.34 -33 2 C-21.91286142 0.16849628 -11.22070643 -0.23135477 0 0 Z " fill="#DB7870" transform="translate(256,232)"/>
<path d="M0 0 C12.51879169 -0.23302818 24.60320889 0.20150181 37 2 C37 2.33 37 2.66 37 3 C24.49204127 3.2496045 12.40137127 2.65944275 0 1 C0 0.67 0 0.34 0 0 Z " fill="#D04238" transform="translate(157,233)"/>
<path d="M0 0 C1.25039062 0.01289062 2.50078125 0.02578125 3.7890625 0.0390625 C5.74199219 0.08933594 5.74199219 0.08933594 7.734375 0.140625 C9.05179688 0.15867187 10.36921875 0.17671875 11.7265625 0.1953125 C14.97989808 0.24246229 18.23177125 0.30826456 21.484375 0.390625 C21.484375 0.720625 21.484375 1.050625 21.484375 1.390625 C20.28107544 1.40464355 20.28107544 1.40464355 19.0534668 1.41894531 C15.42563861 1.47256242 11.79911208 1.55622798 8.171875 1.640625 C6.90923828 1.65480469 5.64660156 1.66898437 4.34570312 1.68359375 C2.53295898 1.73193359 2.53295898 1.73193359 0.68359375 1.78125 C-0.98956909 1.8126709 -0.98956909 1.8126709 -2.6965332 1.84472656 C-5.61921709 2.11726743 -5.61921709 2.11726743 -7.25073242 4.31542969 C-7.66814697 5.00024414 -8.08556152 5.68505859 -8.515625 6.390625 C-12.6985903 9.50103509 -12.6985903 9.50103509 -15.828125 9.078125 C-16.385 8.85125 -16.941875 8.624375 -17.515625 8.390625 C-15.82291667 7.47916667 -14.13020833 6.56770833 -12.4375 5.65625 C-10.38885969 4.44000845 -10.38885969 4.44000845 -8.80273438 2.3359375 C-5.7485513 -0.26181343 -3.96740795 -0.07213469 0 0 Z " fill="#D63933" transform="translate(228.515625,79.609375)"/>
<path d="M0 0 C0 3.63464315 -0.62548537 4.02840882 -3.0625 6.57421875 C-3.69414062 7.24130859 -4.32578125 7.90839844 -4.9765625 8.59570312 C-5.64429688 9.28599609 -6.31203125 9.97628906 -7 10.6875 C-8.00160156 11.7403418 -8.00160156 11.7403418 -9.0234375 12.81445312 C-10.67577321 14.54940562 -12.3347315 16.27747207 -14 18 C-14.66 17.67 -15.32 17.34 -16 17 C-15.195625 16.2575 -14.39125 15.515 -13.5625 14.75 C-11.02560765 12.02748138 -10.75796301 11.35669335 -10 8 C-8.0625 5.75 -8.0625 5.75 -6 4 C-5.34 4 -4.68 4 -4 4 C-3.67 3.01 -3.34 2.02 -3 1 C-2.01 0.67 -1.02 0.34 0 0 Z " fill="#E69189" transform="translate(379,167)"/>
<path d="M0 0 C0.93392578 0.16435547 0.93392578 0.16435547 1.88671875 0.33203125 C12.22590164 2.10569861 22.61231944 3.54315554 33 5 C33 5.33 33 5.66 33 6 C30.54159395 6.02691685 28.08348118 6.04679802 25.625 6.0625 C24.92632812 6.07087891 24.22765625 6.07925781 23.5078125 6.08789062 C18.2265625 6.11328125 18.2265625 6.11328125 16 5 C14.23074468 4.87179309 12.45940825 4.77141988 10.6875 4.6875 C5.96639611 4.31575954 3.34231612 3.57282068 0 0 Z " fill="#CA4C44" transform="translate(39,155)"/>
<path d="M0 0 C0.66 0 1.32 0 2 0 C3.97357506 4.127278 4.26947996 7.50905885 4.25 12.0625 C4.25515625 13.27035156 4.2603125 14.47820312 4.265625 15.72265625 C4.0142924 18.82365699 3.74604138 20.47344343 2 23 C-1.125 25.25 -1.125 25.25 -4 27 C-4.66 26.67 -5.32 26.34 -6 26 C-5.50628906 25.46890625 -5.01257813 24.9378125 -4.50390625 24.390625 C-3.86324219 23.68421875 -3.22257812 22.9778125 -2.5625 22.25 C-1.92441406 21.55390625 -1.28632813 20.8578125 -0.62890625 20.140625 C2.57258103 15.93339472 2.42307876 11.13597935 2 6 C1.10202887 2.63178728 1.10202887 2.63178728 0 0 Z " fill="#CA4D45" transform="translate(333,121)"/>
<path d="M0 0 C-1.13179688 0.48210937 -2.26359375 0.96421875 -3.4296875 1.4609375 C-4.91156608 2.09870803 -6.39333105 2.73674261 -7.875 3.375 C-8.62136719 3.69210938 -9.36773437 4.00921875 -10.13671875 4.3359375 C-11.20986328 4.8 -11.20986328 4.8 -12.3046875 5.2734375 C-13.2944458 5.69761963 -13.2944458 5.69761963 -14.30419922 6.13037109 C-16.19486699 6.99050903 -16.19486699 6.99050903 -18 9 C-17.6730244 11.61580479 -17.17960932 13.64078137 -16 16 C-17.32 15.34 -18.64 14.68 -20 14 C-20.125 10.625 -20.125 10.625 -20 7 C-19.34 6.34 -18.68 5.68 -18 5 C-17.01 5 -16.02 5 -15 5 C-15 4.34 -15 3.68 -15 3 C-13.25531628 2.29911844 -11.50398839 1.61475991 -9.75 0.9375 C-8.77546875 0.55464844 -7.8009375 0.17179687 -6.796875 -0.22265625 C-3.86884847 -1.03645133 -2.81192031 -0.84515582 0 0 Z " fill="#CE4F45" transform="translate(314,108)"/>
<path d="M0 0 C-0.639375 0.78375 -1.27875 1.5675 -1.9375 2.375 C-5.31184884 6.6696258 -5.1218475 9.83850693 -5.0625 15.125 C-5.05798828 15.87910156 -5.05347656 16.63320312 -5.04882812 17.41015625 C-5.03703499 19.27347127 -5.01909942 21.13674555 -5 23 C-7 22 -7 22 -8 19 C-8.12040604 16.87749355 -8.17533819 14.75088413 -8.1875 12.625 C-8.20167969 11.50351563 -8.21585937 10.38203125 -8.23046875 9.2265625 C-8.0012078 6.01690922 -7.46113877 3.85050231 -6 1 C-2.63157895 -1.31578947 -2.63157895 -1.31578947 0 0 Z " fill="#CE5248" transform="translate(121,69)"/>
<path d="M0 0 C5.98076227 0.39329276 10.48117079 1.53623696 16 4 C18.38463968 4.56703158 20.76669282 5.04322499 23.1796875 5.47265625 C23.78039062 5.64667969 24.38109375 5.82070312 25 6 C25.33 6.66 25.66 7.32 26 8 C19.78972353 7.43737174 14.37169827 5.99833221 8.5 3.9375 C7.67757812 3.65583984 6.85515625 3.37417969 6.0078125 3.08398438 C4.00282657 2.39622757 2.00106277 1.69908924 0 1 C0 0.67 0 0.34 0 0 Z " fill="#ECABA3" transform="translate(97,220)"/>
<path d="M0 0 C5.15554026 5.15554026 4.23589123 12.90114515 4.265625 19.6953125 C4.00870232 22.89173295 3.36780364 25.12327012 2 28 C1.34 28 0.68 28 0 28 C0.33 27.071875 0.66 26.14375 1 25.1875 C2.98012509 18.03303344 3.15953679 11.39551944 -0.5 4.8125 C-1.31048782 3.52697626 -2.13577919 2.25003368 -3 1 C-2.01 0.67 -1.02 0.34 0 0 Z " fill="#FCDED7" transform="translate(214,125)"/>
<path d="M0 0 C0 0.66 0 1.32 0 2 C-16.04641085 8.90096166 -16.04641085 8.90096166 -23 7 C-19.54329268 5.82847622 -16.08437878 4.66360923 -12.625 3.5 C-11.64015625 3.16613281 -10.6553125 2.83226562 -9.640625 2.48828125 C-8.69960937 2.17246094 -7.75859375 1.85664063 -6.7890625 1.53125 C-5.91975098 1.23798828 -5.05043945 0.94472656 -4.15478516 0.64257812 C-2 0 -2 0 0 0 Z " fill="#D2544C" transform="translate(113,13)"/>
<path d="M0 0 C5.94 0 11.88 0 18 0 C18 0.33 18 0.66 18 1 C21.3 1.33 24.6 1.66 28 2 C28 2.33 28 2.66 28 3 C18.42706002 3.21867122 9.42332955 2.99888809 0 1 C0 0.67 0 0.34 0 0 Z " fill="#E69891" transform="translate(141,232)"/>
<path d="M0 0 C1 3 1 3 0.33496094 4.77758789 C-0.02823242 5.41946045 -0.39142578 6.06133301 -0.765625 6.72265625 C-1.16136719 7.42583984 -1.55710937 8.12902344 -1.96484375 8.85351562 C-2.38894531 9.58248047 -2.81304687 10.31144531 -3.25 11.0625 C-3.65863281 11.79533203 -4.06726563 12.52816406 -4.48828125 13.28320312 C-7.60195641 18.73463761 -7.60195641 18.73463761 -11 21 C-10.01 17.535 -10.01 17.535 -9 14 C-8.34 14 -7.68 14 -7 14 C-7 12.68 -7 11.36 -7 10 C-6.01 10 -5.02 10 -4 10 C-3.71125 9.0925 -3.4225 8.185 -3.125 7.25 C-2.23468224 4.67797092 -1.28505587 2.38653234 0 0 Z " fill="#ECA9A1" transform="translate(391,146)"/>
<path d="M0 0 C2 2 2 2 3 5 C3.99 5.33 4.98 5.66 6 6 C6.12375 7.134375 6.2475 8.26875 6.375 9.4375 C6.684375 11.2009375 6.684375 11.2009375 7 13 C7.66 13.33 8.32 13.66 9 14 C8.67 15.32 8.34 16.64 8 18 C6.84245302 16.13220879 5.69943739 14.25540751 4.5625 12.375 C3.92441406 11.33085937 3.28632813 10.28671875 2.62890625 9.2109375 C1.01746748 6.0344323 0.37514953 3.51900829 0 0 Z " fill="#E89A92" transform="translate(6,144)"/>
<path d="M0 0 C-4.26739277 3.12832081 -7.45674009 3.37910125 -12.6875 3.3125 C-13.36361328 3.31572266 -14.03972656 3.31894531 -14.73632812 3.32226562 C-19.73241795 3.26758205 -19.73241795 3.26758205 -22 1 C-20.46279297 0.90912109 -20.46279297 0.90912109 -18.89453125 0.81640625 C-17.53384305 0.73194974 -16.17316657 0.64730433 -14.8125 0.5625 C-14.13896484 0.52318359 -13.46542969 0.48386719 -12.77148438 0.44335938 C-9.83630619 0.25722612 -7.01845693 0.00385254 -4.13671875 -0.59765625 C-2 -1 -2 -1 0 0 Z " fill="#CF534C" transform="translate(211,90)"/>
<path d="M0 0 C0 3 0 3 -1.64453125 4.82421875 C-2.71767578 5.74654297 -2.71767578 5.74654297 -3.8125 6.6875 C-4.52019531 7.31011719 -5.22789062 7.93273437 -5.95703125 8.57421875 C-8 10 -8 10 -11 10 C-11 10.66 -11 11.32 -11 12 C-11.66 12 -12.32 12 -13 12 C-13 12.66 -13 13.32 -13 14 C-14.65 14 -16.3 14 -18 14 C-15.23217274 10.91471584 -11.8494624 8.73841634 -8.4375 6.4375 C-4.00676572 3.48735566 -4.00676572 3.48735566 0 0 Z " fill="#CD5249" transform="translate(237,169)"/>
<path d="M0 0 C-1.88923398 1.01241247 -3.78669944 2.00947425 -5.6875 3 C-7.27111328 3.8353125 -7.27111328 3.8353125 -8.88671875 4.6875 C-11.92226262 5.9672274 -13.76026826 6.28851043 -17 6 C-16.67 7.98 -16.34 9.96 -16 12 C-17.37562854 10.71034824 -18.70766393 9.37310707 -20 8 C-20 7.34 -20 6.68 -20 6 C-17.04657157 4.80003066 -14.08658106 3.61718896 -11.125 2.4375 C-10.28324219 2.09525391 -9.44148438 1.75300781 -8.57421875 1.40039062 C-7.76855469 1.08134766 -6.96289062 0.76230469 -6.1328125 0.43359375 C-5.38918457 0.13509521 -4.64555664 -0.16340332 -3.87939453 -0.47094727 C-2 -1 -2 -1 0 0 Z " fill="#D0584E" transform="translate(349,108)"/>
<path d="M0 0 C0.66 0 1.32 0 2 0 C0.40109514 5.19644079 -1.74138003 10.06612142 -4 15 C-6.31 14.34 -8.62 13.68 -11 13 C-11 12.67 -11 12.34 -11 12 C-8.69 12 -6.38 12 -4 12 C-3.67 9.36 -3.34 6.72 -3 4 C-2.34 4 -1.68 4 -1 4 C-0.67 2.68 -0.34 1.36 0 0 Z " fill="#CC5247" transform="translate(242,94)"/>
<path d="M0 0 C-5.77918679 4.16639048 -9.77681753 5.14726726 -16.8125 5.0625 C-18.27623047 5.04896484 -18.27623047 5.04896484 -19.76953125 5.03515625 C-20.87361328 5.01775391 -20.87361328 5.01775391 -22 5 C-22 4.67 -22 4.34 -22 4 C-21.05898437 3.80664062 -20.11796875 3.61328125 -19.1484375 3.4140625 C-17.90320313 3.15367187 -16.65796875 2.89328125 -15.375 2.625 C-14.14523438 2.36976563 -12.91546875 2.11453125 -11.6484375 1.8515625 C-8.01610021 1.0718758 -8.01610021 1.0718758 -4.6640625 -0.1640625 C-2 -1 -2 -1 0 0 Z " fill="#FCDCD6" transform="translate(177,185)"/>
<path d="M0 0 C6.27 0 12.54 0 19 0 C19.33 0.66 19.66 1.32 20 2 C22.52733235 2.65555119 22.52733235 2.65555119 25 3 C25 3.66 25 4.32 25 5 C24.20078125 4.79503906 23.4015625 4.59007813 22.578125 4.37890625 C15.03701835 2.52903384 7.75265964 1.40509393 0 1 C0 0.67 0 0.34 0 0 Z " fill="#D2554C" transform="translate(205,101)"/>
<path d="M0 0 C0.66 0.33 1.32 0.66 2 1 C1.01 1.33 0.02 1.66 -1 2 C-1.70151152 3.3153341 -2.36525925 4.65117592 -3 6 C-5.65254746 9.83145744 -9.68184638 10.07973775 -14 11 C-9.85989729 6.45924219 -5.17609824 3.28157862 0 0 Z " fill="#D14A42" transform="translate(55,38)"/>
<path d="M0 0 C2.31 0.33 4.62 0.66 7 1 C7 1.66 7 2.32 7 3 C9.31 3.33 11.62 3.66 14 4 C14 5.32 14 6.64 14 8 C8.76481294 6.56032356 4.36973991 4.18303389 0 1 C0 0.67 0 0.34 0 0 Z " fill="#E38880" transform="translate(57,201)"/>
<path d="M0 0 C2.62538284 0.14053872 5.25017427 0.28718947 7.875 0.4375 C8.99455078 0.49647461 8.99455078 0.49647461 10.13671875 0.55664062 C15.7734375 0.88671875 15.7734375 0.88671875 18 2 C18 2.66 18 3.32 18 4 C11.7945858 3.51679152 6.00054754 2.66681876 0 1 C0 0.67 0 0.34 0 0 Z " fill="#E69B94" transform="translate(123,228)"/>
<path d="M0 0 C2.97 0 5.94 0 9 0 C9 0.66 9 1.32 9 2 C9.99 2.33 10.98 2.66 12 3 C12.33 3.99 12.66 4.98 13 6 C3.40546697 3.10933941 3.40546697 3.10933941 0 0 Z " fill="#E3857D" transform="translate(71,209)"/>
<path d="M0 0 C0 0.66 0 1.32 0 2 C-0.66 2 -1.32 2 -2 2 C-2.33 2.99 -2.66 3.98 -3 5 C-4.92578125 5.765625 -4.92578125 5.765625 -7.3125 6.25 C-8.48232422 6.50523437 -8.48232422 6.50523437 -9.67578125 6.765625 C-12.07651867 7.00771617 -13.71809588 6.7310448 -16 6 C-13.7101766 4.9955866 -11.4183401 3.99632388 -9.125 3 C-8.14853516 2.57074219 -8.14853516 2.57074219 -7.15234375 2.1328125 C-2.2265625 0 -2.2265625 0 0 0 Z " fill="#D14F46" transform="translate(219,183)"/>
<path d="M0 0 C2.64983336 0.36549426 3.77833295 0.76128164 5.625 2.75 C7.7310857 6.19632205 9 8.93066549 9 13 C7.4941255 11.21326795 5.9954515 9.42046492 4.5 7.625 C3.6646875 6.62726563 2.829375 5.62953125 1.96875 4.6015625 C0 2 0 2 0 0 Z " fill="#E49088" transform="translate(15,162)"/>
<path d="M0 0 C0.99 0.33 1.98 0.66 3 1 C2.01 2.485 2.01 2.485 1 4 C0.35480039 9.69926325 1.49913337 12.51451463 5 17 C0.125 16.125 0.125 16.125 -1 15 C-1.09927286 13.0437407 -1.12969729 11.08377091 -1.125 9.125 C-1.12757812 8.05507812 -1.13015625 6.98515625 -1.1328125 5.8828125 C-1 3 -1 3 0 0 Z " fill="#FBD8D1" transform="translate(54,126)"/>
<path d="M0 0 C5.88502111 1.32412975 9.96089209 4.6533458 14 9 C14 9.66 14 10.32 14 11 C13.01 11 12.02 11 11 11 C10.67 10.01 10.34 9.02 10 8 C6.59148411 4.78625645 3.4946338 3.25431641 -1 2 C-0.67 1.34 -0.34 0.68 0 0 Z " fill="#FDE0D9" transform="translate(354,64)"/>
<path d="M0 0 C2.97 0 5.94 0 9 0 C9 0.66 9 1.32 9 2 C10.32 2.33 11.64 2.66 13 3 C13 3.66 13 4.32 13 5 C8.15340923 4.40895235 4.39251833 3.02055843 0 1 C0 0.67 0 0.34 0 0 Z " fill="#E3877E" transform="translate(84,215)"/>
<path d="M0 0 C2.31 0.33 4.62 0.66 7 1 C7.08078641 3.12438339 7.13909141 5.2496323 7.1875 7.375 C7.22230469 8.55835937 7.25710938 9.74171875 7.29296875 10.9609375 C7.19628906 11.96382812 7.09960938 12.96671875 7 14 C6.01 14.66 5.02 15.32 4 16 C4.33 15.01 4.66 14.02 5 13 C5.53929029 8.40283123 5.53929029 8.40283123 3.8828125 4.2109375 C2.65575305 2.74817172 1.33329732 1.36662975 0 0 Z " fill="#FADAD3" transform="translate(326,81)"/>
<path d="M0 0 C0.66 0.99 1.32 1.98 2 3 C-0.31 7.62 -2.62 12.24 -5 17 C-5.66 17 -6.32 17 -7 17 C-5.24009216 11.08030998 -2.60305395 5.58365008 0 0 Z " fill="#CA4F47" transform="translate(158,161)"/>
<path d="M0 0 C0.66 0 1.32 0 2 0 C0.1668733 5.99932374 -2.07321751 11.44920563 -5 17 C-5.5859375 15.15625 -5.5859375 15.15625 -6 13 C-4.625 10.5 -4.625 10.5 -3 8 C-2.30420546 5.80869466 -2.30420546 5.80869466 -2 4 C-1.34 4 -0.68 4 0 4 C0 2.68 0 1.36 0 0 Z " fill="#C94A42" transform="translate(120,164)"/>
<path d="M0 0 C1.41128754 4.59165383 0.11300128 7.77399745 -2 12 C-2.66 12 -3.32 12 -4 12 C-4.33 12.99 -4.66 13.98 -5 15 C-5.33 14.34 -5.66 13.68 -6 13 C-5.10333658 10.75689987 -4.10853317 8.55245679 -3.0625 6.375 C-2.49660156 5.18648437 -1.93070313 3.99796875 -1.34765625 2.7734375 C-0.90292969 1.85820312 -0.45820313 0.94296875 0 0 Z " fill="#CD4E47" transform="translate(171,134)"/>
<path d="M0 0 C-1.95519384 1.17192047 -3.9142539 2.3373929 -5.875 3.5 C-6.96554687 4.1496875 -8.05609375 4.799375 -9.1796875 5.46875 C-12 7 -12 7 -14 7 C-13.67 6.01 -13.34 5.02 -13 4 C-12.01 4 -11.02 4 -10 4 C-10 3.34 -10 2.68 -10 2 C-3.375 -1.125 -3.375 -1.125 0 0 Z " fill="#FCDCD4" transform="translate(359,101)"/>
<path d="M0 0 C0.33 1.32 0.66 2.64 1 4 C0.34 4 -0.32 4 -1 4 C-1 4.66 -1 5.32 -1 6 C-2.65002828 7.35386936 -4.3174387 8.68678142 -6 10 C-6.33 10.66 -6.66 11.32 -7 12 C-7.66 12 -8.32 12 -9 12 C-7.55575365 8.76138697 -5.74227753 6.38030837 -3.375 3.75 C-2.74335938 3.04359375 -2.11171875 2.3371875 -1.4609375 1.609375 C-0.97882812 1.07828125 -0.49671875 0.5471875 0 0 Z " fill="#CD493F" transform="translate(28,60)"/>
<path d="M0 0 C0 0.66 0 1.32 0 2 C-0.61488281 2.12117188 -1.22976562 2.24234375 -1.86328125 2.3671875 C-2.67152344 2.53476563 -3.47976562 2.70234375 -4.3125 2.875 C-5.11300781 3.03742188 -5.91351563 3.19984375 -6.73828125 3.3671875 C-9.25301118 3.94478999 -9.25301118 3.94478999 -12 6 C-14.1875 5.625 -14.1875 5.625 -16 5 C-14.75264433 4.3490741 -13.50198168 3.70448331 -12.25 3.0625 C-11.55390625 2.70285156 -10.8578125 2.34320313 -10.140625 1.97265625 C-6.54491731 0.33884017 -3.99787815 0 0 0 Z " fill="#CE574D" transform="translate(73,121)"/>
<path d="M0 0 C-1.98 0.66 -3.96 1.32 -6 2 C-6 2.66 -6 3.32 -6 4 C-8.64 4.66 -11.28 5.32 -14 6 C-10.31063898 1.88494347 -5.74338985 -2.42989571 0 0 Z " fill="#FCDAD3" transform="translate(34,114)"/>
<path d="M0 0 C-4.65285818 3.10190545 -9.41532676 4.33846504 -15 4 C-15 3.34 -15 2.68 -15 2 C-9.75614911 0.2520497 -5.52677733 -0.19392201 0 0 Z " fill="#CF4840" transform="translate(184,197)"/>
<path d="M0 0 C0.66 0.99 1.32 1.98 2 3 C-1.17320782 6.53586014 -3.16743695 8.58578031 -8 9 C-7.04270084 7.87411986 -6.08412105 6.7493285 -5.125 5.625 C-4.59132812 4.99851563 -4.05765625 4.37203125 -3.5078125 3.7265625 C-2.38567993 2.44163349 -1.20628025 1.20628025 0 0 Z " fill="#FCE0D8" transform="translate(206,164)"/>
<path d="M0 0 C2 2 2 2 2.1953125 4.6015625 C2.17210937 5.59929687 2.14890625 6.59703125 2.125 7.625 C2.10695312 8.62789062 2.08890625 9.63078125 2.0703125 10.6640625 C2.03550781 11.82035156 2.03550781 11.82035156 2 13 C1.01 13.33 0.02 13.66 -1 14 C-0.67 9.38 -0.34 4.76 0 0 Z " fill="#C84F47" transform="translate(215,133)"/>
<path d="M0 0 C0.57234375 0.21527344 1.1446875 0.43054687 1.734375 0.65234375 C-3.015625 3.65234375 -3.015625 3.65234375 -5.265625 3.65234375 C-5.595625 4.64234375 -5.925625 5.63234375 -6.265625 6.65234375 C-7.585625 5.99234375 -8.905625 5.33234375 -10.265625 4.65234375 C-9.02618224 3.78292881 -7.77355441 2.93228918 -6.515625 2.08984375 C-5.81953125 1.61417969 -5.1234375 1.13851562 -4.40625 0.6484375 C-2.265625 -0.34765625 -2.265625 -0.34765625 0 0 Z " fill="#FBDCD6" transform="translate(131.265625,63.34765625)"/>
<path d="M0 0 C1.81612488 0.95144598 3.62781081 1.91136933 5.4375 2.875 C6.44683594 3.40867188 7.45617187 3.94234375 8.49609375 4.4921875 C11 6 11 6 12 8 C7.24518354 7.42365861 4.02951788 5.44931479 0 3 C0 2.01 0 1.02 0 0 Z " fill="#CE4C44" transform="translate(339,36)"/>
<path d="M0 0 C0.66 0 1.32 0 2 0 C0.64475824 5.42096702 -1.36634013 10.0778687 -4 15 C-5.13643966 11.59068103 -4.86747764 10.99664544 -3.5625 7.8125 C-3.27503906 7.09707031 -2.98757812 6.38164062 -2.69140625 5.64453125 C-2.46324219 5.10183594 -2.23507813 4.55914062 -2 4 C-1.34 4 -0.68 4 0 4 C0 2.68 0 1.36 0 0 Z " fill="#CA4E45" transform="translate(112,181)"/>
<path d="M0 0 C0.33 0 0.66 0 1 0 C1 2.31 1 4.62 1 7 C-0.65 7.66 -2.3 8.32 -4 9 C-4 9.66 -4 10.32 -4 11 C-4.66 10.67 -5.32 10.34 -6 10 C-5.02526874 8.33073546 -4.04510211 6.66464358 -3.0625 5 C-2.24458984 3.6078125 -2.24458984 3.6078125 -1.41015625 2.1875 C-0.71212891 1.1046875 -0.71212891 1.1046875 0 0 Z " fill="#FBD9D4" transform="translate(213,153)"/>
<path d="M0 0 C3.33511388 2.9901021 5.21521119 5.89498574 7 10 C7 10.66 7 11.32 7 12 C6.34 12 5.68 12 5 12 C3 9 3 9 3 5 C2.01 4.67 1.02 4.34 0 4 C0 2.68 0 1.36 0 0 Z " fill="#CA4F45" transform="translate(383,77)"/>
<path d="M0 0 C4.83628305 0.99043705 9.47618873 1.95698846 14 4 C10.15783458 5.38317955 6.92585641 4.9279297 3 4 C1.0625 1.9375 1.0625 1.9375 0 0 Z " fill="#F1B6AE" transform="translate(292,14)"/>
<path d="M0 0 C0.66 0 1.32 0 2 0 C-0.89066059 9.59453303 -0.89066059 9.59453303 -4 13 C-3.50269348 8.02693484 -2.44697666 4.36200187 0 0 Z " fill="#FDE1DA" transform="translate(158,157)"/>
<path d="M0 0 C3.36415018 2.24276679 3.48073245 2.64033012 4.25 6.375 C4.50523438 7.53128906 4.50523438 7.53128906 4.765625 8.7109375 C5.00977253 11.09544508 4.72482102 12.73234568 4 15 C3.32779649 13.06441401 2.66241923 11.12645628 2 9.1875 C1.62875 8.10855469 1.2575 7.02960938 0.875 5.91796875 C0 3 0 3 0 0 Z " fill="#C7493F" transform="translate(4,134)"/>
<path d="M0 0 C0.66 0.33 1.32 0.66 2 1 C-0.0625 3.5 -0.0625 3.5 -3 6 C-6.8125 6.3125 -6.8125 6.3125 -10 6 C-8.0331974 4.0331974 -6.4555341 3.0628363 -4 1.8125 C-3.29875 1.44769531 -2.5975 1.08289063 -1.875 0.70703125 C-1.25625 0.47371094 -0.6375 0.24039063 0 0 Z " fill="#FCDAD3" transform="translate(322,103)"/>
<path d="M0 0 C0.33 0 0.66 0 1 0 C1.3125 2.1875 1.3125 2.1875 1 5 C-1.5 7.8125 -1.5 7.8125 -4 10 C-4 5.27635085 -2.7758541 3.7011388 0 0 Z " fill="#CF4139" transform="translate(18,72)"/>
<path d="M0 0 C0.75 1.625 0.75 1.625 1 4 C-0.625 7.1875 -0.625 7.1875 -3 10 C-5.75 10.875 -5.75 10.875 -8 11 C-7.38511719 10.31164062 -7.38511719 10.31164062 -6.7578125 9.609375 C-6.21898438 8.99578125 -5.68015625 8.3821875 -5.125 7.75 C-4.59132813 7.14671875 -4.05765625 6.5434375 -3.5078125 5.921875 C-2.0202513 4.02581254 -0.99677564 2.18709995 0 0 Z " fill="#FDDDD6" transform="translate(129,132)"/>
<path d="M0 0 C0.66 0.33 1.32 0.66 2 1 C0.33784732 2.33895632 -1.32963607 3.67130142 -3 5 C-3.680625 5.598125 -4.36125 6.19625 -5.0625 6.8125 C-7 8 -7 8 -9.12109375 7.57421875 C-9.74113281 7.38472656 -10.36117188 7.19523437 -11 7 C-10.28972656 6.57847656 -9.57945312 6.15695313 -8.84765625 5.72265625 C-7.92855469 5.17480469 -7.00945312 4.62695312 -6.0625 4.0625 C-5.14597656 3.51722656 -4.22945313 2.97195312 -3.28515625 2.41015625 C-1.11587323 1.19267827 -1.11587323 1.19267827 0 0 Z " fill="#CE544B" transform="translate(360,99)"/>
<path d="M0 0 C0.33 0 0.66 0 1 0 C1 2.64 1 5.28 1 8 C0.34 8 -0.32 8 -1 8 C-1 9.98 -1 11.96 -1 14 C-1.33 14 -1.66 14 -2 14 C-2.1799928 8.78020872 -1.97094808 4.92737019 0 0 Z " fill="#E6A79E" transform="translate(5,93)"/>
<path d="M0 0 C2.78633115 4.17949673 4 6.93375326 4 12 C3.34 12 2.68 12 2 12 C0.70756464 7.8803623 -0.26252625 4.33168317 0 0 Z " fill="#CA554C" transform="translate(390,89)"/>
<path d="M0 0 C0 0.66 0 1.32 0 2 C-2.75 4.1875 -2.75 4.1875 -6 6 C-8.203125 5.61328125 -8.203125 5.61328125 -10 5 C-8.71186658 4.16121545 -7.41936744 3.32913217 -6.125 2.5 C-5.40570313 2.0359375 -4.68640625 1.571875 -3.9453125 1.09375 C-2 0 -2 0 0 0 Z " fill="#D05047" transform="translate(67,32)"/>
<path d="M0 0 C2 0 2 0 3.625 1.4375 C5.65451195 5.21977227 5.24272259 8.79280836 5 13 C4.34 13 3.68 13 3 13 C3.061875 11.96875 3.12375 10.9375 3.1875 9.875 C2.98864405 5.76531027 2.05532197 3.51117504 0 0 Z " fill="#FDE1DA" transform="translate(299,124)"/>
<path d="M0 0 C0.33 0 0.66 0 1 0 C1.29296875 6.0546875 1.29296875 6.0546875 1 8 C0.01 8.66 -0.98 9.32 -2 10 C-2.17942163 6.05272412 -2.09350689 3.4019487 0 0 Z " fill="#CE473E" transform="translate(8,89)"/>
<path d="M0 0 C0.33 1.32 0.66 2.64 1 4 C-4.41538462 8.06153846 -4.41538462 8.06153846 -7.375 7.75 C-7.91125 7.5025 -8.4475 7.255 -9 7 C-7.2421875 6.05598958 -5.484375 5.11197917 -3.7265625 4.16796875 C-1.69497635 2.95236507 -1.69497635 2.95236507 0 0 Z " fill="#D05047" transform="translate(220,81)"/>
<path d="M0 0 C7.57142857 4 7.57142857 4 10 8 C5.17965738 7.58682778 3.09007389 5.61980085 0 2 C0 1.34 0 0.68 0 0 Z " fill="#CC4D45" transform="translate(351,44)"/>
<path d="M0 0 C0 0.33 0 0.66 0 1 C-6.435 1.495 -6.435 1.495 -13 2 C-13 1.34 -13 0.68 -13 0 C-8.38926889 -1.29676812 -4.66159911 -0.71109139 0 0 Z " fill="#FEE6E0" transform="translate(120,158)"/>
<path d="M0 0 C7.50769231 0.61538462 7.50769231 0.61538462 10 2.5625 C10.33 3.036875 10.66 3.51125 11 4 C7.06225823 4.36630156 5.43460229 4.30233203 2.125 2 C1.42375 1.34 0.7225 0.68 0 0 Z " fill="#D0453C" transform="translate(39,155)"/>
<path d="M0 0 C8.19256018 0.35010941 8.19256018 0.35010941 11.5625 3.0625 C12.036875 3.701875 12.51125 4.34125 13 5 C11.39402675 4.54803755 9.79027492 4.08817673 8.1875 3.625 C6.84751953 3.24214844 6.84751953 3.24214844 5.48046875 2.8515625 C3 2 3 2 0 0 Z " fill="#CE524A" transform="translate(349,62)"/>
<path d="M0 0 C1.14926266 0.95421808 2.29430541 1.91352045 3.4375 2.875 C4.07558594 3.40867188 4.71367187 3.94234375 5.37109375 4.4921875 C7 6 7 6 8 8 C6.0625 7.6875 6.0625 7.6875 4 7 C3.67 6.01 3.34 5.02 3 4 C2.01 3.67 1.02 3.34 0 3 C0 2.01 0 1.02 0 0 Z " fill="#CF564E" transform="translate(366,56)"/>
<path d="M0 0 C0.66 0.33 1.32 0.66 2 1 C1.67 2.32 1.34 3.64 1 5 C-1.31 5.66 -3.62 6.32 -6 7 C-4.02 4.69 -2.04 2.38 0 0 Z " fill="#D15046" transform="translate(38,50)"/>
<path d="M0 0 C7.75 0.75 7.75 0.75 10 3 C7.36 3 4.72 3 2 3 C2 2.34 2 1.68 2 1 C1.34 0.67 0.68 0.34 0 0 Z " fill="#D34840" transform="translate(139,229)"/>
<path d="M0 0 C0.66 0.33 1.32 0.66 2 1 C0.02 3.31 -1.96 5.62 -4 8 C-4 5 -4 5 -3 2 C-2.01 1.34 -1.02 0.68 0 0 Z " fill="#FDE9E2" transform="translate(196,173)"/>
<path d="M0 0 C1.98 0.66 3.96 1.32 6 2 C6.33 3.98 6.66 5.96 7 8 C4.35247996 5.42215154 2.05567935 3.08351902 0 0 Z " fill="#D0554D" transform="translate(362,67)"/>
<path d="M0 0 C0 0.66 0 1.32 0 2 C-2.64 2.33 -5.28 2.66 -8 3 C-8 2.34 -8 1.68 -8 1 C-5.07175348 0.02391783 -3.04386724 -0.08226668 0 0 Z " fill="#D2483E" transform="translate(260,229)"/>
<path d="M0 0 C8.57142857 0.85714286 8.57142857 0.85714286 12 3 C4.61538462 3.36923077 4.61538462 3.36923077 1.5 1.5 C1.005 1.005 0.51 0.51 0 0 Z " fill="#D1443B" transform="translate(119,225)"/>
<path d="M0 0 C0.66 0.33 1.32 0.66 2 1 C0.68 1.33 -0.64 1.66 -2 2 C-1.67 3.98 -1.34 5.96 -1 8 C-2.37562854 6.71034824 -3.70766393 5.37310707 -5 4 C-5 3.34 -5 2.68 -5 2 C-2.625 0.9375 -2.625 0.9375 0 0 Z " fill="#CB6258" transform="translate(334,112)"/>
<path d="M0 0 C0.66 0.33 1.32 0.66 2 1 C0.37660195 2.70884005 -1.29319053 4.37446717 -3 6 C-3.66 6 -4.32 6 -5 6 C-4.1875 3.5625 -4.1875 3.5625 -3 1 C-2.01 0.67 -1.02 0.34 0 0 Z " fill="#D93931" transform="translate(43,48)"/>
<path d="M0 0 C0.99 0.33 1.98 0.66 3 1 C-0.465 3.97 -0.465 3.97 -4 7 C-4 6.01 -4 5.02 -4 4 C-3.34 4 -2.68 4 -2 4 C-1.34 2.68 -0.68 1.36 0 0 Z " fill="#FEE1DB" transform="translate(242,161)"/>
<path d="M0 0 C0.66 0 1.32 0 2 0 C0.50902342 3.7952131 -1.75700849 5.61042731 -5 8 C-4.34 6.35 -3.68 4.7 -3 3 C-2.34 3 -1.68 3 -1 3 C-0.67 2.01 -0.34 1.02 0 0 Z " fill="#FDE0D9" transform="translate(332,139)"/>
</svg>
